HIERARCHY
ROOT joint_Root
{
  OFFSET 0 0 0
  CHANNELS 6 Xposition Yposition Zposition Zrotation Xrotation Yrotation
  JOINT Hips
  {
    OFFSET 0 93.9241 -3
    CHANNELS 6 Xposition Yposition Zposition Zrotation Xrotation Yrotation
    JOINT Spine
    {
      OFFSET 15.7357 0 0
      CHANNELS 6 Xposition Yposition Zposition Zrotation Xrotation Yrotation
      JOINT Chest
      {
        OFFSET 8.98455 -0.406207 0
        CHANNELS 6 Xposition Yposition Zposition Zrotation Xrotation Yrotation
        JOINT Neck
        {
          OFFSET 16.3773 0 0
          CHANNELS 6 Xposition Yposition Zposition Zrotation Xrotation Yrotation
          JOINT Head
          {
            OFFSET 6.45672 0 0
            CHANNELS 6 Xposition Yposition Zposition Zrotation Xrotation Yrotation
            End Site
            {
              OFFSET 0 0 0
            }
          }
        }
        JOINT Shoulder_L
        {
          OFFSET 12.9942 -0.242716 4.98039
          CHANNELS 6 Xposition Yposition Zposition Zrotation Xrotation Yrotation
          JOINT UpperArm_L
          {
            OFFSET 5.34809 0 0
            CHANNELS 6 Xposition Yposition Zposition Zrotation Xrotation Yrotation
            JOINT LowerArm_L
            {
              OFFSET 24.3286 1.87007e-05 0
              CHANNELS 6 Xposition Yposition Zposition Zrotation Xrotation Yrotation
              JOINT Hand_L
              {
                OFFSET 22.2916 0 0
                CHANNELS 6 Xposition Yposition Zposition Zrotation Xrotation Yrotation
                End Site
                {
                  OFFSET 0 0 0
                }
              }
            }
          }
        }
        JOINT Shoulder_R
        {
          OFFSET 12.9945 -0.242716 -4.98039
          CHANNELS 6 Xposition Yposition Zposition Zrotation Xrotation Yrotation
          JOINT UpperArm_R
          {
            OFFSET -5.34813 0 0
            CHANNELS 6 Xposition Yposition Zposition Zrotation Xrotation Yrotation
            JOINT LowerArm_R
            {
              OFFSET -24.3289 0.000322201 0
              CHANNELS 6 Xposition Yposition Zposition Zrotation Xrotation Yrotation
              JOINT Hand_R
              {
                OFFSET -22.2915 -0.000108084 0
                CHANNELS 6 Xposition Yposition Zposition Zrotation Xrotation Yrotation
                End Site
                {
                  OFFSET 0 0 0
                }
              }
            }
          }
        }
      }
    }
    JOINT UpperLeg_L
    {
      OFFSET -2.19248 -6.46944 0
      CHANNELS 6 Xposition Yposition Zposition Zrotation Xrotation Yrotation
      JOINT LowerLeg_L
      {
        OFFSET 39.0811 0 -1.23785e-05
        CHANNELS 6 Xposition Yposition Zposition Zrotation Xrotation Yrotation
        JOINT Foot_L
        {
          OFFSET 40.9854 0 -1.26872e-05
          CHANNELS 6 Xposition Yposition Zposition Zrotation Xrotation Yrotation
          JOINT Toes_L
          {
            OFFSET 11.7543 0 0
            CHANNELS 6 Xposition Yposition Zposition Zrotation Xrotation Yrotation
            End Site
            {
              OFFSET 0 0 0
            }
          }
        }
      }
    }
    JOINT UpperLeg_R
    {
      OFFSET -2.19251 6.46944 0
      CHANNELS 6 Xposition Yposition Zposition Zrotation Xrotation Yrotation
      JOINT LowerLeg_R
      {
        OFFSET -39.0811 -0.00228153 -0.0401928
        CHANNELS 6 Xposition Yposition Zposition Zrotation Xrotation Yrotation
        JOINT Foot_R
        {
          OFFSET -40.9854 0 0
          CHANNELS 6 Xposition Yposition Zposition Zrotation Xrotation Yrotation
          JOINT Toes_R
          {
            OFFSET -11.7543 0 0
            CHANNELS 6 Xposition Yposition Zposition Zrotation Xrotation Yrotation
            End Site
            {
              OFFSET 0 0 0
            }
          }
        }
      }
    }
  }
}
MOTION
Frames:	8
Frame Time:	0.0333333
0 0 0 0 0 -0 -0.266666 89.9358 30.497 85.1535 -2.65383 4.62809 15.7357 5.1072e-06 -5.51765e-07 152.937 87.1478 -150.953 8.98455 -0.406207 -4.3199e-07 -5.26211 4.84863 4.19755 16.3773 -1.3905e-06 -6.99897e-07 -9.36787 0.742493 -1.91153 6.45672 -1.25837e-06 -1.02172e-07 0.53854 -5.42479 -6.58746 12.9942 -0.242716 4.98039 -90.5769 1.79698 -87.1986 5.34809 -7.22636e-06 -6.2814e-07 -68.7136 -9.10505 20.0928 24.3286 1.87007e-05 4.90208e-06 6.27464 17.9087 -19.6753 22.2916 -9.88446e-07 4.63217e-06 11.0468 5.27712 0.704572 12.9945 -0.242716 -4.98039 90.1045 -0.593922 -95.0205 -5.34813 -1.25947e-06 -3.79883e-06 -66.9434 0.321164 -2.57397 -24.3289 0.000322201 -8.65921e-06 10.3136 16.8671 -32.0969 -22.2915 -0.000108084 -4.47941e-06 14.0672 5.33304 -0.873952 -2.19248 -6.46944 -1.22534e-07 -172.842 -3.55547 -19.875 39.0811 -6.73843e-06 -1.23785e-05 -0.243129 0.0940421 68.0909 40.9854 -6.48686e-06 -1.26872e-05 3.58997 -9.0302 -47.2538 11.7543 -2.30145e-07 3.05095e-06 0.50761 -0.62424 -22.4413 -2.19251 6.46944 -1.45247e-06 -167.111 11.3012 173.215 -39.0811 -0.00228153 -0.0401928 0.296128 -0.487638 27.9361 -40.9854 7.72618e-06 5.99936e-06 7.018 -8.9521 -68.3053 -11.7543 -5.6619e-06 -5.58687e-06 0.0811027 -0.0848799 -17.2275 
0 0 0 0 0 -0 -0.097249 90.1172 32.0503 85.9149 -3.12528 4.3601 15.7357 5.1072e-06 -5.51765e-07 155.585 86.8304 -153.884 8.98455 -0.406207 -4.3199e-07 -5.23996 5.57289 3.66326 16.3773 -1.3905e-06 -6.99897e-07 -9.46763 0.967072 -1.91884 6.45672 -1.25837e-06 -1.02172e-07 0.686294 -5.76507 -6.80778 12.9942 -0.242716 4.98039 -90.6255 1.86614 -86.4665 5.34809 -7.22636e-06 -6.2814e-07 -68.0054 -9.44379 23.011 24.3286 1.87007e-05 4.90208e-06 6.05956 17.5974 -19.3473 22.2916 -9.88446e-07 4.63217e-06 9.74568 5.27639 0.725504 12.9945 -0.242716 -4.98039 90.1769 -1.05632 -95.4928 -5.34813 -1.25947e-06 -3.79883e-06 -65.9782 1.47887 -5.30398 -24.3289 0.000322201 -8.65921e-06 11.6008 16.926 -35.1902 -22.2915 -0.000108084 -4.47941e-06 13.7034 5.32725 -0.706189 -2.19248 -6.46944 -1.22534e-07 -174.422 -1.43022 -23.3986 39.0811 -6.73843e-06 -1.23785e-05 -0.307337 0.138728 64.8903 40.9854 -6.48686e-06 -1.26872e-05 5.99164 -12.448 -49.3132 11.7543 -2.30145e-07 3.05095e-06 0.500613 -0.614703 -22.3551 -2.19251 6.46944 -1.45247e-06 -168.216 10.7245 174.534 -39.0811 -0.00228153 -0.0401928 0.245407 -0.409189 27.1656 -40.9854 7.72618e-06 5.99936e-06 6.5301 -8.96472 -68.9708 -11.7543 -5.6619e-06 -5.58687e-06 0.0521074 -0.0543067 -16.9929 
0 0 0 0 0 -0 0.0780452 90.3143 33.5388 86.6819 -3.31033 3.95562 15.7357 5.1072e-06 -5.51765e-07 158.157 86.6221 -156.776 8.98455 -0.406207 -4.3199e-07 -5.34139 6.10563 3.05227 16.3773 -1.3905e-06 -6.99897e-07 -9.76899 1.08079 -1.97878 6.45672 -1.25837e-06 -1.02172e-07 1.04168 -6.04464 -6.85157 12.9942 -0.242716 4.98039 -90.6611 1.90302 -85.8393 5.34809 -7.22636e-06 -6.2814e-07 -67.1856 -9.60252 25.884 24.3286 1.87007e-05 4.90208e-06 5.82024 17.0309 -19.1893 22.2916 -9.88446e-07 4.63217e-06 9.04606 5.28887 0.382381 12.9945 -0.242716 -4.98039 90.2208 -1.35156 -95.7209 -5.34813 -1.25947e-06 -3.79883e-06 -64.9529 2.18743 -7.53331 -24.3289 0.000322201 -8.65921e-06 12.6393 16.4048 -38.4524 -22.2915 -0.000108084 -4.47941e-06 13.123 5.31932 -0.475717 -2.19248 -6.46944 -1.22533e-07 -175.563 0.970459 -26.068 39.0811 -6.73843e-06 -1.23785e-05 -0.27341 0.15518 59.361 40.9854 -6.48686e-06 -1.26872e-05 5.51945 -13.1733 -51.0882 11.7543 -2.30145e-07 3.05095e-06 0.513458 -0.632247 -22.5135 -2.19251 6.46944 -1.45247e-06 -169.084 9.12729 175.696 -39.0811 -0.00228153 -0.0401928 0.194135 -0.329269 26.1134 -40.9854 7.72618e-06 5.99936e-06 5.80443 -10.2872 -69.316 -11.7543 -5.6619e-06 -5.58687e-06 -0.0105858 0.00742106 -16.5737 
0 0 0 0 0 -0 0.276224 90.4581 35.027 87.317 -3.44703 3.59159 15.7357 5.1072e-06 -5.51765e-07 159.359 86.4005 -158.282 8.98455 -0.406207 -4.3199e-07 -5.30892 6.60643 2.46396 16.3773 -1.3905e-06 -6.99897e-07 -10.2953 1.16434 -2.10501 6.45672 -1.25837e-06 -1.02172e-07 1.2676 -6.37591 -6.85846 12.9942 -0.242716 4.98039 -90.6971 1.9369 -85.2027 5.34809 -7.22636e-06 -6.2814e-07 -65.9521 -10.1783 28.3517 24.3286 1.87007e-05 4.90208e-06 5.77293 16.843 -19.2346 22.2916 -9.88446e-07 4.63217e-06 8.38065 5.29689 0.159021 12.9945 -0.242716 -4.98039 90.2365 -1.4584 -95.788 -5.34813 -1.25947e-06 -3.79883e-06 -63.8719 2.61051 -9.421 -24.3289 0.000322201 -8.65921e-06 13.6892 15.7704 -41.8692 -22.2915 -0.000108084 -4.47941e-06 12.6457 5.31097 -0.237242 -2.19248 -6.46944 -1.22534e-07 -176.36 2.96968 -27.5294 39.0811 -6.73843e-06 -1.23785e-05 -0.206988 0.155466 51.7366 40.9854 -6.48686e-06 -1.26872e-05 4.52014 -13.0396 -52.5402 11.7543 -2.30145e-07 3.05095e-06 0.510306 -0.627935 -22.4746 -2.19251 6.46944 -1.45247e-06 -169.619 6.61814 176.857 -39.0811 -0.00228153 -0.0401928 0.145765 -0.246927 25.0739 -40.9854 7.72618e-06 5.99936e-06 4.90427 -12.6339 -69.6056 -11.7543 -5.6619e-06 -5.58687e-06 -0.0676917 0.0475983 -16.573 
0 0 0 0 0 -0 0.464063 90.5176 36.5 87.6739 -3.51898 3.17949 15.7357 5.1072e-06 -5.51765e-07 160.207 86.2101 -159.318 8.98455 -0.406207 -4.3199e-07 -5.2749 7.02282 2.10484 16.3773 -1.3905e-06 -6.99897e-07 -10.68 1.30466 -2.35136 6.45672 -1.25837e-06 -1.02172e-07 1.09957 -6.71709 -7.05141 12.9942 -0.242716 4.98039 -90.7598 2.04249 -84.5903 5.34809 -7.22636e-06 -6.2814e-07 -64.3996 -10.9876 30.4006 24.3286 1.87007e-05 4.90208e-06 5.63173 16.4975 -19.1495 22.2916 -9.88446e-07 4.63217e-06 8.04567 5.29968 0.0814985 12.9945 -0.242716 -4.98039 90.2615 -1.62233 -95.8407 -5.34813 -1.25947e-06 -3.79883e-06 -62.834 2.94141 -10.9769 -24.3289 0.000322201 -8.65921e-06 14.5849 15.1018 -44.9654 -22.2915 -0.000108084 -4.47941e-06 12.5704 5.31537 -0.362698 -2.19248 -6.46944 -1.22534e-07 -176.978 3.87138 -27.9892 39.0811 -6.73843e-06 -1.23785e-05 -0.148294 0.152016 42.3743 40.9854 -6.48686e-06 -1.26872e-05 4.34517 -13.6752 -53.2454 11.7543 -2.30145e-07 3.05095e-06 0.503509 -0.618642 -22.3908 -2.19251 6.46944 -1.45247e-06 -169.858 4.31876 177.942 -39.0811 -0.00228153 -0.0401928 0.106703 -0.175251 24.1513 -40.9854 7.72618e-06 5.99936e-06 4.06991 -14.7647 -70.0311 -11.7543 -5.6619e-06 -5.58687e-06 -0.0650366 0.0457984 -16.573 
0 0 0 0 0 -0 0.627334 90.4765 38.021 87.6746 -3.38803 2.57807 15.7357 5.1072e-06 -5.51765e-07 162.022 86.1434 -161.167 8.98455 -0.406207 -4.3199e-07 -5.46288 7.22903 2.05915 16.3773 -1.3905e-06 -6.99897e-07 -10.8756 1.42121 -2.66555 6.45672 -1.25837e-06 -1.02172e-07 0.88078 -7.01619 -7.42297 12.9942 -0.242716 4.98039 -90.802 2.09857 -84.0796 5.34809 -7.22636e-06 -6.2814e-07 -62.812 -11.9064 32.0882 24.3286 1.87007e-05 4.90208e-06 5.49569 16.3728 -18.8455 22.2916 -9.88446e-07 4.63217e-06 8.23066 5.29966 0.0820238 12.9945 -0.242716 -4.98039 90.2886 -1.79897 -95.8843 -5.34813 -1.25947e-06 -3.79883e-06 -61.8889 3.06773 -12.1475 -24.3289 0.000322201 -8.65921e-06 15.28 14.4965 -47.5038 -22.2915 -0.000108084 -4.47941e-06 12.2975 5.32053 -0.511274 -2.19248 -6.46944 -1.22534e-07 -177.567 3.55119 -27.1574 39.0811 -6.73843e-06 -1.23785e-05 -0.0860734 0.136534 31.0613 40.9854 -6.48686e-06 -1.26872e-05 4.09625 -13.2262 -53.5114 11.7543 -2.30145e-07 3.05095e-06 0.511145 -0.629084 -22.485 -2.19251 6.46944 -1.45247e-06 -170.036 4.08605 178.852 -39.0811 -0.00228153 -0.0401928 0.0692088 -0.0994539 23.3304 -40.9854 7.72618e-06 5.99936e-06 3.57357 -15.1043 -70.73 -11.7543 -5.6619e-06 -5.58687e-06 -0.0459451 0.0322631 -16.5734 
0 0 0 0 0 -0 0.753903 90.3432 39.7015 87.4185 -3.34426 2.0523 15.7357 5.1072e-06 -5.51765e-07 163.734 86.0777 -162.776 8.98455 -0.406207 -4.3199e-07 -5.6565 7.40856 2.28755 16.3773 -1.3905e-06 -6.99897e-07 -10.8162 1.53581 -3.04044 6.45672 -1.25837e-06 -1.02172e-07 0.486004 -7.26639 -7.86854 12.9942 -0.242716 4.98039 -90.7867 2.0296 -83.8082 5.34809 -7.22636e-06 -6.2814e-07 -61.5274 -12.8193 33.4221 24.3286 1.87007e-05 4.90208e-06 5.37034 16.3198 -18.4971 22.2916 -9.88446e-07 4.63217e-06 8.54682 5.29627 0.176671 12.9945 -0.242716 -4.98039 90.3168 -1.99403 -95.9725 -5.34813 -1.25947e-06 -3.79883e-06 -61.1092 3.00719 -12.9377 -24.3289 0.000322201 -8.65921e-06 15.7894 13.9373 -49.5782 -22.2915 -0.000108084 -4.47941e-06 11.8788 5.31709 -0.411765 -2.19248 -6.46944 -1.22534e-07 -178.581 1.31652 -24.7554 39.0811 -6.73843e-06 -1.23785e-05 -0.0422142 0.105874 18.0636 40.9854 -6.48686e-06 -1.26872e-05 3.12082 -11.1588 -52.7159 11.7543 -2.30145e-07 3.05095e-06 0.510285 -0.627913 -22.4744 -2.19251 6.46944 -1.45247e-06 -170.023 4.45163 -179.956 -39.0811 -0.00228153 -0.0401928 0.032619 -0.0198265 22.4156 -40.9854 7.72618e-06 5.99936e-06 3.22209 -14.8522 -71.5578 -11.7543 -5.6619e-06 -5.58687e-06 -0.00184962 0.00130926 -16.5738 
0 0 0 0 0 -0 0.810887 90.1005 41.6869 87.0323 -3.47642 1.97494 15.7357 5.1072e-06 -5.51765e-07 163.134 85.9932 -162.035 8.98455 -0.406207 -4.3199e-07 -5.53896 7.53184 2.56741 16.3773 -1.3905e-06 -6.99897e-07 -10.5895 1.63879 -3.19011 6.45672 -1.25837e-06 -1.02172e-07 -0.169563 -7.25722 -8.30119 12.9942 -0.242716 4.98039 -90.6881 1.76636 -83.7138 5.34809 -7.22636e-06 -6.2814e-07 -60.7639 -13.3442 34.3516 24.3286 1.87007e-05 4.90208e-06 5.26685 16.171 -18.3142 22.2916 -9.88446e-07 4.63217e-06 8.73603 5.29515 0.207648 12.9945 -0.242716 -4.98039 90.3295 -2.09559 -96.0618 -5.34813 -1.25947e-06 -3.79883e-06 -60.5609 3.12119 -13.6064 -24.3289 0.000322201 -8.65921e-06 16.2215 13.6671 -50.9205 -22.2915 -0.000108084 -4.47941e-06 11.9651 5.31445 -0.335973 -2.19248 -6.46944 -1.22534e-07 179.58 -3.20376 -22.1027 39.0811 -6.73843e-06 -1.23785e-05 -0.0145367 0.0487998 7.30271 40.9854 -6.48686e-06 -1.26872e-05 1.44984 -6.88446 -51.6901 11.7543 -2.30145e-07 3.05095e-06 0.505191 -0.620951 -22.4116 -2.19251 6.46944 -1.45247e-06 -169.925 4.86574 -177.958 -39.0811 -0.00228153 -0.0401928 0.00251372 0.0508476 21.3514 -40.9854 7.72618e-06 5.99936e-06 2.89372 -14.4098 -72.5644 -11.7543 -5.6619e-06 -5.58687e-06 0.0803585 -0.0840734 -17.2214 
